<svg width="136" height="146" viewBox="0 0 136 146" fill="none" xmlns="http://www.w3.org/2000/svg">
<mask id="path-1-inside-1_8_65" fill="white">
<path fill-rule="evenodd" clip-rule="evenodd" d="M68.0321 80.9569L67.9784 80.9032L67.9248 80.9569L0 13.0321L13.0321 0L67.9785 54.9464L122.925 2.13236e-05L135.957 13.0321L68.0321 80.9569ZM67.9784 119.946L13.0321 65L0 78.0321L67.9248 145.957L67.9784 145.903L68.0321 145.957L135.957 78.0321L122.925 65L67.9784 119.946Z"/>
</mask>
<path d="M67.9784 80.9032L68.6855 80.1961L67.9784 79.489L67.2713 80.1961L67.9784 80.9032ZM68.0321 80.9569L67.325 81.664L68.0321 82.3711L68.7392 81.664L68.0321 80.9569ZM67.9248 80.9569L67.2177 81.664L67.9248 82.3711L68.6319 81.664L67.9248 80.9569ZM0 13.0321L-0.707107 12.325L-1.41421 13.0321L-0.707107 13.7392L0 13.0321ZM13.0321 0L13.7392 -0.707107L13.0321 -1.41421L12.325 -0.707107L13.0321 0ZM67.9785 54.9464L67.2713 55.6535L67.9785 56.3606L68.6856 55.6535L67.9785 54.9464ZM122.925 2.13236e-05L123.632 -0.707085L122.925 -1.41419L122.218 -0.707085L122.925 2.13236e-05ZM135.957 13.0321L136.664 13.7392L137.371 13.0321L136.664 12.325L135.957 13.0321ZM13.0321 65L13.7392 64.2929L13.0321 63.5858L12.325 64.2929L13.0321 65ZM67.9784 119.946L67.2713 120.653L67.9784 121.361L68.6856 120.653L67.9784 119.946ZM0 78.0321L-0.707107 77.325L-1.41421 78.0321L-0.707107 78.7392L0 78.0321ZM67.9248 145.957L67.2177 146.664L67.9248 147.371L68.6319 146.664L67.9248 145.957ZM67.9784 145.903L68.6856 145.196L67.9785 144.489L67.2713 145.196L67.9784 145.903ZM68.0321 145.957L67.3249 146.664L68.032 147.371L68.7392 146.664L68.0321 145.957ZM135.957 78.0321L136.664 78.7392L137.371 78.0321L136.664 77.325L135.957 78.0321ZM122.925 65L123.632 64.2929L122.925 63.5858L122.218 64.2929L122.925 65ZM67.2713 81.6104L67.325 81.664L68.7392 80.2498L68.6855 80.1961L67.2713 81.6104ZM68.6319 81.664L68.6855 81.6104L67.2713 80.1961L67.2177 80.2498L68.6319 81.664ZM-0.707107 13.7392L67.2177 81.664L68.6319 80.2498L0.707107 12.325L-0.707107 13.7392ZM12.325 -0.707107L-0.707107 12.325L0.707107 13.7392L13.7392 0.707107L12.325 -0.707107ZM68.6856 54.2393L13.7392 -0.707107L12.325 0.707107L67.2713 55.6535L68.6856 54.2393ZM122.218 -0.707085L67.2713 54.2393L68.6856 55.6535L123.632 0.707128L122.218 -0.707085ZM136.664 12.325L123.632 -0.707085L122.218 0.707128L135.25 13.7392L136.664 12.325ZM68.7392 81.664L136.664 13.7392L135.25 12.325L67.325 80.2498L68.7392 81.664ZM12.325 65.7071L67.2713 120.653L68.6856 119.239L13.7392 64.2929L12.325 65.7071ZM0.707107 78.7392L13.7392 65.7071L12.325 64.2929L-0.707107 77.325L0.707107 78.7392ZM68.6319 145.25L0.707107 77.325L-0.707107 78.7392L67.2177 146.664L68.6319 145.25ZM67.2713 145.196L67.2177 145.25L68.6319 146.664L68.6855 146.61L67.2713 145.196ZM68.7393 145.25L68.6856 145.196L67.2713 146.61L67.3249 146.664L68.7393 145.25ZM135.25 77.325L67.325 145.25L68.7392 146.664L136.664 78.7392L135.25 77.325ZM122.218 65.7071L135.25 78.7392L136.664 77.325L123.632 64.2929L122.218 65.7071ZM68.6856 120.653L123.632 65.7071L122.218 64.2929L67.2713 119.239L68.6856 120.653Z" fill="white" mask="url(#path-1-inside-1_8_65)"/>
</svg>
