<?xml version="1.0" standalone="no"?>
<!DOCTYPE svg PUBLIC "-//W3C//DTD SVG 20010904//EN"
 "http://www.w3.org/TR/2001/REC-SVG-20010904/DTD/svg10.dtd">
<svg version="1.0" xmlns="http://www.w3.org/2000/svg"
 width="93.000000pt" height="93.000000pt" viewBox="0 0 93.000000 93.000000"
 preserveAspectRatio="xMidYMid meet">
<metadata>
Created by potrace 1.14, written by Peter Selinger 2001-2017
</metadata>
<g transform="translate(0.000000,93.000000) scale(0.100000,-0.100000)"
fill="#000000" stroke="none">
<path d="M574 901 c43 -47 22 -143 -45 -211 -30 -30 -139 -100 -283 -180 -100
-57 -176 -127 -176 -162 0 -40 74 -128 176 -208 55 -44 94 -72 94 -69 0 3 -23
29 -50 59 -59 64 -100 141 -100 186 0 49 38 86 195 189 201 133 265 210 252
307 -5 39 -49 108 -69 108 -6 0 -3 -8 6 -19z"/>
<path d="M785 578 c-253 -62 -417 -169 -408 -267 4 -44 40 -105 92 -156 48
-46 51 -71 15 -114 -35 -42 -18 -39 54 9 38 26 66 53 77 76 19 41 15 51 -53
121 -23 23 -48 56 -57 73 -15 29 -15 32 5 60 26 37 130 106 239 159 112 54
115 59 36 39z"/>
</g>
</svg>
