<svg width="40" height="36" viewBox="0 0 40 36" fill="none" xmlns="http://www.w3.org/2000/svg">
<path d="M0.767277 17.6374L10.1357 20.3964C10.41 20.4771 10.7057 20.4366 10.9482 20.2851L25.1658 11.3998C26.1899 10.7598 27.2604 12.1466 26.382 12.9753L15.7999 22.958C15.6243 23.1237 15.5145 23.3473 15.4909 23.5876L14.7898 30.7209C14.7002 31.6323 15.7809 32.1747 16.4581 31.5583L20.2167 28.137C20.5674 27.8177 21.094 27.7887 21.4777 28.0675L31.1462 35.0935C31.7323 35.5194 32.5627 35.2001 32.7125 34.4912L39.6132 1.83077C39.7784 1.0488 39.0049 0.398572 38.263 0.695741L0.677961 15.7498C-0.202978 16.1027 -0.143043 17.3693 0.767277 17.6374Z" fill="#AF1734"/>
</svg>
